<?xml version="1.0" encoding="utf-8"?>
<!-- Generator: Adobe Illustrator 11.0, SVG Export Plug-In  -->
<!DOCTYPE svg PUBLIC "-//W3C//DTD SVG 1.0//EN"    "http://www.w3.org/TR/2001/REC-SVG-20010904/DTD/svg10.dtd" [
	<!ENTITY ns_flows "http://ns.adobe.com/Flows/1.0/">
	<!ENTITY ns_svg "http://www.w3.org/2000/svg">
	<!ENTITY ns_xlink "http://www.w3.org/1999/xlink">
]>
<svg  xmlns="&ns_svg;" xmlns:xlink="&ns_xlink;" xmlns:a="http://ns.adobe.com/AdobeSVGViewerExtensions/3.0/"
	 width="512" height="328" viewBox="-0.7 -0.388 512 328" xml:space="preserve">
	<defs>
	</defs>
	<g>
		<rect x="0.108" y="0.108" fill="#0C479D" stroke="#000000" stroke-width="0.216" width="510.48" height="327.024"/> 
		<path fill="#FFFFFF" stroke="#000000" stroke-width="0.216" d="M36.036,327.132H474.66c19.872,0,35.928-16.128,35.928-35.928
			V35.964c0-19.8-16.056-35.856-35.928-35.856H36.036c0.072,0,0,0,0,0c-19.8,0-35.856,16.056-35.856,35.856c0,0.072,0,0.072,0,0.072
			v255.168c0-0.072,0,0,0,0C0.18,311.004,16.236,327.132,36.036,327.132h0.072H36.036z"/>
		<path fill="#0C479D" d="M36.036,311.148H474.66c11.016,0,20.016-8.928,20.016-19.944V35.964c0-11.016-9-19.944-20.016-19.944
			H36.036l0,0c-11.016,0-19.944,8.928-19.944,19.944c0,0.072,0,0.072,0,0.072v255.168c0-0.072,0-0.072,0,0
			C16.092,302.22,25.02,311.148,36.036,311.148c0,0,0,0,0.072,0H36.036z"/>
		<path fill="#FFFFFF" d="M318.636,299.124l-45.072-78.048v-39.312c30.528-0.36,60.696-3.024,90.648-7.776l23.256,39.888h15.552
			l-8.28-43.56l10.296-6.696l-10.296-6.696l8.28-43.632h-15.552l-24.336,39.816c-28.872-4.68-59.04-7.272-89.352-7.704
			l-0.216-39.312l45.072-78.048h-34.632L196.02,144.9h-60.768c-1.944,0-3.816,0.576-5.4,1.656l-21.744,14.688
			c-0.792,0.504-1.224,1.44-1.224,2.376c0,0.936,0.432,1.8,1.224,2.376l21.744,14.616c1.584,1.08,3.456,1.656,5.4,1.656h60.768
			l87.984,116.856H318.636z"/>
	</g>
</svg>
