<svg xmlns="http://www.w3.org/2000/svg" width="570.80585" height="506.68124" version="1">
  <path d="M285.40293.2c-16.4564 0-31.67743 8.7797-39.90625 23.0313L6.3717 437.38748c-8.2289 14.2519-8.2289 31.80945 0 46.06255 8.2275 14.2518 23.4497 23.0312 39.9062 23.0312h478.24998c16.4566 0 31.6788-8.7794 39.9063-23.0312 8.2289-14.2531 8.2289-31.81066 0-46.06255L325.30918 23.2313C317.08038 8.9797 301.85933.2 285.40293.2z" fill="#ce252c"/>
  <path d="M512.24488 453.33127L285.40272 60.43014 58.5606 453.33127h453.68428z" fill="#ffd100"/>
  <path d="M182.7026 279.03016l45.0993-45.09927L388.103 394.232l-45.0993 45.09926z" opacity=".99"/>
  <path d="M343.0037 233.9309l45.0993 45.09925-160.3011 160.3011-45.0993-45.09926z" opacity=".99"/>
</svg>
